<svg width="33" height="32" viewBox="0 0 33 32" fill="none" xmlns="http://www.w3.org/2000/svg">
<path d="M10 0H10.1375C12.1312 0 13.9812 1.05687 14.9937 2.77813L16.5 5.34125L18.0063 2.77813C19.0188 1.05687 20.8687 0 22.8625 0H23C26.0375 0 28.5 2.4625 28.5 5.5C28.5 6.4 28.2812 7.19375 27.9 8H30.5C31.6063 8 32.5 8.89375 32.5 10V14C32.5 15.1063 31.6063 16 30.5 16H2.5C1.39562 16 0.5 15.1063 0.5 14V10C0.5 8.89375 1.39562 8 2.5 8H5.1C4.71625 7.19375 4.5 6.4 4.5 5.5C4.5 2.4625 6.9625 0 10 0ZM12.4062 4.29875C11.9313 3.49437 11.0687 3 10.1375 3H10C8.61875 3 7.5 4.11937 7.5 5.5C7.5 6.88125 8.61875 8 10 8H14.5813L12.4062 4.29875ZM23 3H22.8625C21.9312 3 21.0687 3.49437 20.5938 4.29875L18.4188 8H23C24.3813 8 25.5 6.88125 25.5 5.5C25.5 4.11937 24.3813 3 23 3ZM2.5 18H14.5V32H5.5C3.84312 32 2.5 30.6562 2.5 29V18ZM18.5 32V18H30.5V29C30.5 30.6562 29.1562 32 27.5 32H18.5Z" fill="#FC6A57"/>
</svg>
